REM MD5 3a972fcea9a6b5e0a744a63e89da4f00
FILE "Broken Sword II - The Smoking Mirror (Europe).bin" BINARY
  TRACK 01 MODE2/2352
    INDEX 01 00:00:00
  TRACK 02 AUDIO
    INDEX 00 55:40:23
    INDEX 01 55:42:23
  TRACK 03 AUDIO
    INDEX 00 58:20:28
    INDEX 01 58:22:28
REM LEADOUT 61:39:59
